<svg width="57" height="65" viewBox="0 0 57 65" fill="none" xmlns="http://www.w3.org/2000/svg">
<g filter="url(#filter0_d_1_647)">
<path fill-rule="evenodd" clip-rule="evenodd" d="M36.7213 4.7429C36.9601 2.60925 35.4474 0.682598 33.3138 0.443757C31.1802 0.188993 29.2535 1.71758 29.0147 3.85122C28.7281 6.2874 29.1261 9.20126 29.6356 12.1947C31.0528 12.6247 32.4221 13.2456 33.6959 13.9781C35.0653 10.7458 36.4028 7.5453 36.7213 4.7429ZM51.7046 14.1055C50.8607 12.131 48.5678 11.2394 46.5934 12.0833C43.998 13.2138 41.307 15.4271 38.6002 17.704C39.6192 18.7071 40.5746 19.8377 41.3866 21.0637C44.4597 20.6816 47.4054 20.2198 49.6824 19.2326C51.6568 18.3568 52.5644 16.064 51.7046 14.1055ZM45.1603 3.692C43.4407 2.41818 41.0045 2.76848 39.7307 4.48813C37.7881 7.09946 36.4824 11.0005 35.0653 14.8061C35.543 15.1245 35.9888 15.443 36.4187 15.7774C36.7372 16.0321 37.0716 16.3028 37.4059 16.5735C40.6542 14.1214 44.0298 11.733 45.9724 9.12165C47.2462 7.40199 46.88 4.96581 45.1603 3.692Z" fill="#53B175"/>
<path d="M37.7723 34.8688C36.5781 36.1585 35.3043 37.3527 33.9508 38.5151C32.056 40.1551 30.1294 41.7474 28.1709 43.276C26.0691 41.9862 24.5564 41.3334 24.3016 41.6678C24.0787 41.9703 24.9545 43.0849 26.5308 44.5339C21.2445 48.4668 15.6556 51.9379 9.65272 54.7881C8.71328 55.2339 7.72607 55.5524 6.75478 55.9027C6.50002 55.9982 6.22933 55.9982 6.11787 56.0141C4.58929 56.1893 4.12753 55.7753 4.19122 54.3741C4.38229 50.0113 5.73573 45.9191 7.13693 41.8429C7.51907 40.7283 7.91714 39.6137 8.33113 38.4991C10.4489 39.7889 11.9615 40.4576 12.2163 40.1233C12.487 39.757 11.2131 38.2921 9.0795 36.461C10.6081 32.5122 12.3118 28.627 14.3181 24.9011C18.3306 27.8787 21.8973 29.8372 22.2954 29.2958C22.6934 28.7544 19.7477 25.8724 15.6874 22.863L15.5123 22.7356C16.2129 21.5414 16.9453 20.3472 17.7255 19.1849C18.6968 17.72 19.891 16.3825 21.0693 15.0768C22.6457 13.3412 24.6838 12.7521 26.9607 13.2616C34.2534 14.8857 39.3168 19.0734 41.7052 26.2545C42.1829 27.7194 41.753 29.1525 41.0046 30.4741C40.4951 31.3657 39.9378 32.2097 39.3168 33.0058C35.4635 30.1875 32.1197 28.3723 31.7376 28.8818C31.3713 29.3913 34.0304 32.0186 37.7723 34.8688Z" fill="#F3603F"/>
</g>
<defs>
<filter id="filter0_d_1_647" x="0.185547" y="0.416016" width="55.8436" height="63.636" filterUnits="userSpaceOnUse" color-interpolation-filters="sRGB">
<feFlood flood-opacity="0" result="BackgroundImageFix"/>
<feColorMatrix in="SourceAlpha" type="matrix" values="0 0 0 0 0 0 0 0 0 0 0 0 0 0 0 0 0 0 127 0" result="hardAlpha"/>
<feOffset dy="4"/>
<feGaussianBlur stdDeviation="2"/>
<feComposite in2="hardAlpha" operator="out"/>
<feColorMatrix type="matrix" values="0 0 0 0 0 0 0 0 0 0 0 0 0 0 0 0 0 0 0.25 0"/>
<feBlend mode="normal" in2="BackgroundImageFix" result="effect1_dropShadow_1_647"/>
<feBlend mode="normal" in="SourceGraphic" in2="effect1_dropShadow_1_647" result="shape"/>
</filter>
</defs>
</svg>
