<svg width="58" height="65" viewBox="0 0 58 65" fill="none" xmlns="http://www.w3.org/2000/svg">
<g filter="url(#filter0_d_1_294)">
<path fill-rule="evenodd" clip-rule="evenodd" d="M37.8534 4.80666C38.0954 2.64506 36.5629 0.69317 34.4013 0.451201C32.2397 0.193099 30.2878 1.74171 30.0458 3.9033C29.7555 6.3714 30.1587 9.32343 30.6749 12.3561C32.1106 12.7917 33.4979 13.4208 34.7884 14.1628C36.1757 10.8882 37.5308 7.64577 37.8534 4.80666ZM53.033 14.2919C52.178 12.2916 49.8551 11.3882 47.8548 12.2432C45.2254 13.3885 42.4992 15.6308 39.7569 17.9376C40.7893 18.9538 41.7572 20.0992 42.5799 21.3413C45.6932 20.9541 48.6775 20.4863 50.9843 19.4862C52.9846 18.5989 53.9041 16.276 53.033 14.2919ZM46.403 3.74199C44.6608 2.45148 42.1927 2.80637 40.9022 4.54856C38.9342 7.19409 37.6114 11.1463 36.1757 15.0017C36.6597 15.3243 37.1113 15.6469 37.5469 15.9857C37.8695 16.2438 38.2083 16.518 38.547 16.7922C41.8378 14.308 45.2577 11.8883 47.2257 9.24277C48.5162 7.50059 48.1452 5.0325 46.403 3.74199Z" fill="white"/>
<path d="M38.9181 35.3271C37.7082 36.6337 36.4177 37.8436 35.0466 39.0212C33.1269 40.6827 31.175 42.2958 29.1909 43.8444C27.0615 42.5378 25.5291 41.8764 25.271 42.2152C25.0451 42.5217 25.9324 43.6509 27.5294 45.1188C22.1738 49.1032 16.5117 52.6199 10.4302 55.5074C9.4784 55.9591 8.47826 56.2817 7.49425 56.6366C7.23615 56.7334 6.96192 56.7334 6.849 56.7495C5.30039 56.9269 4.83258 56.5075 4.89711 55.088C5.09068 50.668 6.46185 46.5222 7.8814 42.3926C8.26855 41.2634 8.67184 40.1342 9.09125 39.005C11.2367 40.3117 12.7692 40.9892 13.0273 40.6504C13.3015 40.2794 12.011 38.7953 9.84942 36.9402C11.398 32.9397 13.1241 29.0036 15.1566 25.2289C19.2217 28.2454 22.8351 30.2296 23.2384 29.6811C23.6417 29.1327 20.6574 26.2129 16.5439 23.1641L16.3665 23.035C17.0763 21.8252 17.8183 20.6153 18.6087 19.4377C19.5927 17.9537 20.8026 16.5986 21.9963 15.2759C23.5933 13.5175 25.6581 12.9207 27.9649 13.4369C35.3531 15.0823 40.4828 19.3248 42.9025 26.6C43.3865 28.0841 42.9509 29.5359 42.1927 30.8748C41.6765 31.7782 41.1119 32.6332 40.4828 33.4397C36.579 30.5845 33.1915 28.7455 32.8043 29.2617C32.4333 29.7779 35.1272 32.4396 38.9181 35.3271Z" fill="white"/>
</g>
<defs>
<filter id="filter0_d_1_294" x="0.891357" y="0.423096" width="56.4705" height="64.3647" filterUnits="userSpaceOnUse" color-interpolation-filters="sRGB">
<feFlood flood-opacity="0" result="BackgroundImageFix"/>
<feColorMatrix in="SourceAlpha" type="matrix" values="0 0 0 0 0 0 0 0 0 0 0 0 0 0 0 0 0 0 127 0" result="hardAlpha"/>
<feOffset dy="4"/>
<feGaussianBlur stdDeviation="2"/>
<feComposite in2="hardAlpha" operator="out"/>
<feColorMatrix type="matrix" values="0 0 0 0 0 0 0 0 0 0 0 0 0 0 0 0 0 0 0.25 0"/>
<feBlend mode="normal" in2="BackgroundImageFix" result="effect1_dropShadow_1_294"/>
<feBlend mode="normal" in="SourceGraphic" in2="effect1_dropShadow_1_294" result="shape"/>
</filter>
</defs>
</svg>
