<svg width="34" height="24" viewBox="0 0 34 24" xmlns="http://www.w3.org/2000/svg" xmlns:xlink="http://www.w3.org/1999/xlink">
    <path id="---" fill="#00a1fe" fill-rule="evenodd" stroke="none" d="M 4 0 C 1.79088 0 0 1.79088 0 4 L 0 20 C 0 22.20912 1.79088 24 4 24 L 30 24 C 32.209122 24 34 22.20912 34 20 L 34 4 C 34 1.79088 32.209122 0 30 0 Z"/>
    <path id="path1" fill="#fffc67" fill-rule="evenodd" stroke="none" d="M 24 12 C 24 8.134007 20.865993 5 17 5 C 13.134007 5 10 8.134007 10 12 C 10 15.865993 13.134007 19 17 19 C 20.865993 19 24 15.865993 24 12 Z"/>
</svg>
